<svg xmlns="http://www.w3.org/2000/svg" viewBox="0 0 57.18 61.73"><defs><style>.cls-1{fill:#fff}</style></defs><g id="Lag_2" data-name="Lag 2"><g id="Lag_3" data-name="Lag 3"><path class="cls-1" d="M6.77 3c16.23 1.4 32.67.59 48.91.59a1.5 1.5 0 0 0 0-3L6.77 0c-1.93 0-1.93 3 0 3l48.91.58v-3C39.44.59 23 1.4 6.77 0c-1.92-.16-1.91 2.84 0 3zM15 32.63l41-2.53c1.91-.12 2-3 0-3H4.85a1.51 1.51 0 0 0-.4 2.95l10.15 2.53c1.87.46 2.67-2.43.79-2.9L5.25 27.15l-.4 3H56v-3l-41 2.48c-1.92.12-1.94 3.12 0 3zM2.73 61.65C6.09 62 10 61 13.33 60.59l14.89-1.69L57 55.61a1.5 1.5 0 0 0 0-3A195.22 195.22 0 0 0 2.33 58.7c-1.87.48-1.08 3.38.8 2.9a192.16 192.16 0 0 1 53.87-6v-3l-28.78 3.3-13.9 1.58c-3.65.42-7.95 1.58-11.59 1.17-1.92-.21-1.9 2.79 0 3z" transform="translate(-1.26)"/></g></g></svg>