<svg xmlns="http://www.w3.org/2000/svg" viewBox="0 0 100.76 87.05"><defs><style>.cls-1{fill:#fff;}</style></defs><title>menu_close_path</title><g id="Lag_2" data-name="Lag 2"><g id="Lag_3" data-name="Lag 3"><path fill="#fff" d="M14.14,70.85,85.05,19.7c1.56-1.12.06-3.72-1.51-2.59L12.62,68.26c-1.55,1.12,0,3.72,1.52,2.59Z"/><path fill="#fff" d="M20.38,14.32C31.11,23.07,41.61,32.07,51.1,42.18c9.16,9.75,17.5,20.22,25.83,30.67,1.21,1.51,3.32-.63,2.13-2.12C70.72,60.28,62.37,49.81,53.23,40.06,43.74,29.94,33.23,21,22.5,12.2c-1.48-1.21-3.62.9-2.12,2.12Z"/><path fill="#fff" d="M1.48,4.31c-2,12.12-.67,24.22-.11,36.4a276.62,276.62,0,0,1-1,38.62,1.51,1.51,0,0,0,1.1,1.45c8.22,2.59,16.71,3.14,25.26,3.7,9.76.65,19.47,2,29.23,2.44a121.13,121.13,0,0,0,26.21-1.74c3.11-.52,9.53-.42,12-2.45,2.14-1.78,2.72-6.2,3.47-8.73,5.26-17.69,2.88-34.53.22-52.43l-2.09-14c-.39-2.65,0-5.76-2.7-6.89-3-1.27-8.42-.26-11.61-.27-5.18,0-10.35,0-15.53.06-11,.1-22,.31-33,.51C22.39,1.14,11.34.39,1.07,3.06A1.5,1.5,0,0,0,1.86,6C10.35,3.75,19.33,4.2,28,4c8.43-.15,16.85-.32,25.27-.44s16.82-.21,25.23-.22c3.85,0,7.79-.2,11.64,0,2.67.18,2.2,1.6,2.55,4l1.12,7.49c2.47,16.63,6.36,33.7,2.89,50.45a73.72,73.72,0,0,1-3.09,11.32c-1,2.52-1.45,3.4-3.93,4.2A48.09,48.09,0,0,1,83.15,82a122,122,0,0,1-25.29,2c-9.2-.34-18.35-1.58-27.53-2.27-9.46-.71-18.94-1-28.06-3.85l1.1,1.45A277.4,277.4,0,0,0,4.45,42.64C4,30.12,2.28,17.58,4.38,5.11c.32-1.89-2.57-2.7-2.9-.8Z"/></g></g></svg>