<svg xmlns="http://www.w3.org/2000/svg" viewBox="0 0 78.88 44.73"><g data-name="Lag 2"><path d="M49 22.49A297.7 297.7 0 0 0 78.22 2.81c1.49-1.14.23-3.55-1.51-2.59L47.94 16c-1.28.7-2.56 1.37-3.82 2.09 1.18-.67 1.77.46.28-.6a31.5 31.5 0 0 0-3.82-2L26.25 8a1.51 1.51 0 0 0-1.82 2.36 104.31 104.31 0 0 0 15.36 12.7v-2.59L.71 41.9c-1.46.8-.47 3.34 1.16 2.74a290.57 290.57 0 0 0 38.54-17.3c3.81-2.06 4.88-.78 8.54 1.1 2.65 1.36 5.37 2.6 8.13 3.72a96.61 96.61 0 0 0 19.72 5.58c1.56.26 2.77-1.9 1.2-2.74L49 19.9c-1.71-.9-3.23 1.69-1.52 2.59l28.94 15.1 1.16-2.74A96.91 96.91 0 0 1 44.49 22.5a1.51 1.51 0 0 0-1.51 0A292.24 292.24 0 0 1 1.07 41.75l1.15 2.74 39.09-21.43a1.52 1.52 0 0 0 0-2.59A100.54 100.54 0 0 1 26.55 8.25l-1.82 2.35 15.1 7.88c3.76 2 4.61 2.86 8.27.85L78.22 2.81 76.71.22A299 299 0 0 1 47.5 19.9a1.5 1.5 0 0 0 1.5 2.59z" fill="#fff" data-name="Lag 3"/></g></svg>