<svg xmlns="http://www.w3.org/2000/svg" viewBox="0 0 57.18 61.73"><defs><style>.cls-1{fill:#fff;}</style></defs><title>menu_burger_path</title><g id="Lag_2" data-name="Lag 2"><g id="Lag_3" data-name="Lag 3"><path fill="#fff" d="M6.77,3C23,4.4,39.44,3.59,55.68,3.59a1.5,1.5,0,0,0,0-3L6.77,0c-1.93,0-1.93,3,0,3l48.91.58v-3C39.44.59,23,1.4,6.77,0,4.85-.16,4.86,2.84,6.77,3Z" transform="translate(-1.26)"/><path fill="#fff" d="M15,32.63,56,30.1c1.91-.12,2-3,0-3H4.85a1.51,1.51,0,0,0-.4,2.95L14.6,32.58c1.87.46,2.67-2.43.79-2.9L5.25,27.15l-.4,3H56v-3L15,29.63C13.08,29.75,13.06,32.75,15,32.63Z" transform="translate(-1.26)"/><path fill="#fff" d="M2.73,61.65C6.09,62,10,61,13.33,60.59L28.22,58.9,57,55.61a1.5,1.5,0,0,0,0-3A195.22,195.22,0,0,0,2.33,58.7c-1.87.48-1.08,3.38.8,2.9a192.16,192.16,0,0,1,53.87-6v-3L28.22,55.9l-13.9,1.58c-3.65.42-7.95,1.58-11.59,1.17C.81,58.44.83,61.44,2.73,61.65Z" transform="translate(-1.26)"/></g></g></svg>